<svg width="170" height="102" viewBox="0 0 170 102" fill="none" xmlns="http://www.w3.org/2000/svg">
<g clip-path="url(#clip0_31_121)">
<path d="M150.242 9.80099L129.337 26.4055L129.626 26.8122L169.964 1.13459L170.016 1.10175L170.046 1.04881C170.246 0.703566 170.33 0.365892 170.157 0.0970475C169.996 -0.153574 169.681 -0.223256 169.428 -0.242998C168.933 -0.281432 168.285 -0.153313 167.924 -0.0820306C167.894 -0.0761424 167.866 -0.070642 167.84 -0.0656554L167.84 -0.0656441C166.446 0.205919 164.902 0.503465 163.23 0.825766C151.71 3.04612 134.094 6.44137 117.201 10.6108C107.529 12.9981 98.0894 15.6404 90.1634 18.4631C82.2465 21.2826 75.8089 24.2925 72.1673 27.4262C67.8429 31.1472 65.3575 36.0915 64.7761 41.6749L64.7761 41.6749C64.7282 42.1361 64.7091 43.0307 64.7841 43.9046C64.8216 44.3422 64.8833 44.782 64.9795 45.1637C65.0737 45.5374 65.2087 45.8885 65.4127 46.1193L65.4134 46.1201C65.4252 46.1335 65.4862 46.2029 65.5917 46.2124C65.7485 46.2264 65.8267 46.1093 65.8473 46.068C65.8686 46.0255 65.8751 45.9847 65.8776 45.9671C65.8808 45.9443 65.8823 45.9212 65.8831 45.9008C65.8857 45.831 65.8818 45.7249 65.8772 45.6014L65.8759 45.5655C65.8653 45.2771 65.851 44.8423 65.8775 44.2908C65.9307 43.1878 66.1476 41.6167 66.8882 39.8419C68.3571 36.322 71.9059 31.9546 80.4465 28.8658L80.4465 28.8659L80.5961 28.8124C103.59 20.593 126.388 14.5698 150.242 9.80099ZM65.7874 45.7882L65.7874 45.7882L65.7874 45.7882Z" fill="white" stroke="white" stroke-width="0.5"/>
<path d="M103.112 62.1581C101.643 65.6782 98.0938 70.0458 89.5524 73.1346L89.5524 73.1345L89.4039 73.1876C66.4103 81.407 43.6115 87.4302 19.7583 92.199L40.6633 75.5945L40.3735 75.1878L0.0360174 100.865L-0.015569 100.898L-0.0461729 100.951C-0.245744 101.296 -0.3297 101.634 -0.156874 101.903C0.00423854 102.154 0.318658 102.223 0.572466 102.243C1.06657 102.281 1.71531 102.153 2.07626 102.082C2.10608 102.076 2.13393 102.071 2.15957 102.066L2.15963 102.066C3.55411 101.794 5.0979 101.497 6.77012 101.174C18.2903 98.9539 35.9064 95.5586 52.7986 91.3892C62.4706 89.0019 71.9106 86.3596 79.8366 83.5369C87.7535 80.7174 94.1911 77.7075 97.8328 74.5738C102.157 70.8528 104.643 65.9085 105.224 60.3251C105.272 59.8639 105.291 58.9693 105.216 58.0954C105.178 57.6578 105.117 57.218 105.02 56.8363C104.926 56.4626 104.791 56.1115 104.587 55.8807L104.587 55.8799C104.575 55.8666 104.514 55.7971 104.408 55.7876C104.252 55.7736 104.173 55.8907 104.153 55.932C104.131 55.9745 104.125 56.0153 104.122 56.0329C104.119 56.0557 104.118 56.0788 104.117 56.0992C104.114 56.1691 104.118 56.2752 104.123 56.3988L104.124 56.4345C104.135 56.7229 104.149 57.1577 104.122 57.7092C104.069 58.8122 103.852 60.3833 103.112 62.1581ZM104.213 56.2118L104.213 56.2118L104.213 56.2118Z" fill="white" stroke="white" stroke-width="0.5"/>
</g>
<defs>
<clipPath id="clip0_31_121">
<rect width="170" height="102" fill="white"/>
</clipPath>
</defs>
</svg>
